<svg xmlns="http://www.w3.org/2000/svg" version="1.1" xmlns:xlink="http://www.w3.org/1999/xlink" xmlns:svgjs="http://svgjs.dev/svgjs" width="1500" height="935" viewBox="0 0 1500 935"><g transform="matrix(1,0,0,1,-0.9090909090909918,0.37854251012157647)"><svg viewBox="0 0 396 247" data-background-color="#dbefed" preserveAspectRatio="xMidYMid meet" height="935" width="1500" xmlns="http://www.w3.org/2000/svg" xmlns:xlink="http://www.w3.org/1999/xlink"><g id="tight-bounds" transform="matrix(1,0,0,1,0.2400000000000091,-0.09999999999999432)"><svg viewBox="0 0 395.52 247.2" height="247.2" width="395.52"><g><svg></svg></g><g><svg viewBox="0 0 395.52 247.2" height="247.2" width="395.52"><mask id="a7162ee6-ad74-4c90-8e06-33ea50a1c44f"><rect width="395.52" height="247.2" fill="white"></rect><g transform="matrix(1,0,0,1,0,65.15845911303803)" id="clone"><svg viewBox="0 0 395.52 116.88308177392392" height="116.88308177392392" width="395.52"><g><svg viewBox="0 0 395.52 116.88308177392392" height="116.88308177392392" width="395.52"><g><svg viewBox="0 0 395.52 116.88308177392392" height="116.88308177392392" width="395.52"><g><svg viewBox="0 0 395.52 116.88308177392392" height="116.88308177392392" width="395.52"><g id="SvgjsG9223"><svg viewBox="0 0 395.52 116.88308177392392" height="116.88308177392392" width="395.52" id="SvgjsSvg9222"><g><svg viewBox="0 0 395.52 76.19671695216405" height="76.19671695216405" width="395.52"><g transform="matrix(1,0,0,1,0,0)"><svg width="395.52" viewBox="-2.568611122219 -38.35 212.96861112221902 41.84" height="76.19671695216405" data-palette-color="#cb1106"><path d="M13.65 0L13.65 0 7.59 0Q7.37 0 7.35-0.24L7.35-0.24 0.44-34.59Q0.39-34.79 0.63-34.79L0.63-34.79 6.3-34.79Q6.49-34.79 6.54-34.59L6.54-34.59 10.64-11.69 14.65-34.59Q14.7-34.79 14.89-34.79L14.89-34.79 20.48-34.79Q20.75-34.79 20.68-34.59L20.68-34.59 13.89-0.24Q13.87 0 13.65 0ZM29.51 0L29.51 0 23.85 0Q23.61 0 23.61-0.24L23.61-0.24 23.65-34.59Q23.65-34.79 23.85-34.79L23.85-34.79 29.47-34.79Q29.66-34.79 29.66-34.59L29.66-34.59 29.71-0.24Q29.71 0 29.51 0ZM50.46 0L50.46 0 34.3 0Q34.1 0 34.1-0.24L34.1-0.24 34.15-34.59Q34.15-34.79 34.35-34.79L34.35-34.79 50.41-34.79Q50.61-34.79 50.61-34.55L50.61-34.55 50.61-28.96Q50.61-28.76 50.41-28.76L50.41-28.76 40.16-28.76 40.16-20.95 50.41-20.95Q50.61-20.95 50.61-20.75L50.61-20.75 50.65-15.09Q50.65-14.89 50.46-14.89L50.46-14.89 40.16-14.89 40.16-6.15 50.46-6.15Q50.65-6.15 50.65-5.91L50.65-5.91 50.65-0.2Q50.65 0 50.46 0ZM65.76 0L65.76 0 59.71 0Q59.49 0 59.47-0.24L59.47-0.24 53.56-34.59Q53.51-34.79 53.7-34.79L53.7-34.79 59.32-34.79Q59.51-34.79 59.56-34.59L59.56-34.59 62.76-12.01 66.06-34.59Q66.11-34.79 66.35-34.79L66.35-34.79 70.87-34.79Q71.06-34.79 71.11-34.59L71.11-34.59 74.36-12.01 77.6-34.59Q77.65-34.79 77.85-34.79L77.85-34.79 83.42-34.79Q83.66-34.79 83.61-34.59L83.61-34.59 77.65-0.24Q77.63-0.15 77.51-0.07L77.51-0.07 77.41 0 71.35 0Q71.21 0 71.11-0.24L71.11-0.24 68.55-18.19 66.01-0.24Q65.98 0 65.76 0ZM98.21 0L98.21 0 92.15 0Q91.93 0 91.91-0.24L91.91-0.24 85-34.59Q84.95-34.79 85.2-34.79L85.2-34.79 90.86-34.79Q91.05-34.79 91.1-34.59L91.1-34.59 95.2-11.69 99.21-34.59Q99.26-34.79 99.45-34.79L99.45-34.79 105.04-34.79Q105.31-34.79 105.24-34.59L105.24-34.59 98.45-0.24Q98.43 0 98.21 0ZM114.42 0.49L114.42 0.49Q111.76 0.49 109.51-0.88L109.51-0.88Q107.29-2.25 105.93-4.53 104.58-6.81 104.58-9.55L104.58-9.55 104.63-25.39Q104.63-28.17 105.97-30.4L105.97-30.4Q107.29-32.64 109.53-34 111.78-35.35 114.42-35.35L114.42-35.35Q117.15-35.35 119.32-34.01L119.32-34.01Q121.52-32.67 122.85-30.41 124.18-28.15 124.18-25.39L124.18-25.39 124.23-9.55Q124.23-6.81 122.91-4.54L122.91-4.54Q121.57-2.25 119.35-0.88 117.13 0.49 114.42 0.49ZM114.42-5.54L114.42-5.54Q115.93-5.54 117.05-6.77 118.18-8.01 118.18-9.55L118.18-9.55 118.13-25.39Q118.13-27.05 117.08-28.2 116.03-29.35 114.42-29.35L114.42-29.35Q112.88-29.35 111.78-28.22 110.68-27.1 110.68-25.39L110.68-25.39 110.68-9.55Q110.68-7.91 111.78-6.73 112.88-5.54 114.42-5.54ZM137.41 0L137.41 0 131.67 0Q131.5 0 131.5-0.2L131.5-0.2 131.55-14.4 124.86-34.59Q124.81-34.79 125.01-34.79L125.01-34.79 130.58-34.79Q130.82-34.79 130.87-34.59L130.87-34.59 134.56-21.14 138.32-34.59Q138.36-34.79 138.56-34.79L138.56-34.79 144.17-34.79Q144.37-34.79 144.32-34.59L144.32-34.59 137.56-14.6 137.61-0.2Q137.61 0 137.41 0ZM145.34-0.24L145.34-0.24 151.55-34.59Q151.59-34.79 151.79-34.79L151.79-34.79 159.04-34.79Q159.24-34.79 159.28-34.59L159.28-34.59 165.24-0.24Q165.27 0 165.05 0L165.05 0 159.5 0Q159.26 0 159.24-0.24L159.24-0.24 158.7-3.91 151.89-3.91 151.35-0.24Q151.33 0 151.11 0L151.11 0 145.54 0Q145.34 0 145.34-0.24ZM157.7-9.25L155.65-23.29 155.35-25.15 155.13-23.29 152.89-9.25 157.7-9.25ZM177.52 0.49L177.52 0.49Q174.81 0.49 172.64-0.85L172.64-0.85Q170.44-2.2 169.11-4.47 167.78-6.74 167.78-9.55L167.78-9.55 167.78-25.39Q167.78-28.13 169.12-30.37L169.12-30.37Q170.44-32.64 172.66-34 174.88-35.35 177.52-35.35L177.52-35.35Q180.28-35.35 182.5-34.03L182.5-34.03Q184.72-32.69 186.03-30.44 187.33-28.2 187.33-25.39L187.33-25.39 187.33-23.1Q187.33-22.9 187.09-22.9L187.09-22.9 181.47-22.9Q181.28-22.9 181.28-23.1L181.28-23.1 181.28-25Q181.28-26.9 180.2-28.15 179.13-29.39 177.52-29.39L177.52-29.39Q176.08-29.39 174.96-28.2 173.83-27 173.83-25.39L173.83-25.39 173.83-9.55Q173.83-7.91 174.93-6.73 176.03-5.54 177.52-5.54L177.52-5.54Q179.13-5.54 180.2-6.7 181.28-7.86 181.28-9.55L181.28-9.55 181.28-12.01 177.79-12.01Q177.52-12.01 177.52-12.26L177.52-12.26 177.52-17.85Q177.52-18.09 177.79-18.09L177.79-18.09 187.14-18.09Q187.33-18.09 187.33-17.85L187.33-17.85 187.33-9.55Q187.33-6.74 186.02-4.47L186.02-4.47Q184.67-2.2 182.48-0.85 180.28 0.49 177.52 0.49ZM207.2 0L207.2 0 191.04 0Q190.85 0 190.85-0.24L190.85-0.24 190.9-34.59Q190.9-34.79 191.09-34.79L191.09-34.79 207.16-34.79Q207.35-34.79 207.35-34.55L207.35-34.55 207.35-28.96Q207.35-28.76 207.16-28.76L207.16-28.76 196.9-28.76 196.9-20.95 207.16-20.95Q207.35-20.95 207.35-20.75L207.35-20.75 207.4-15.09Q207.4-14.89 207.2-14.89L207.2-14.89 196.9-14.89 196.9-6.15 207.2-6.15Q207.4-6.15 207.4-5.91L207.4-5.91 207.4-0.2Q207.4 0 207.2 0Z" opacity="1" transform="matrix(1,0,0,1,0,0)" fill="black" class="wordmark-text-0" id="SvgjsPath9221" stroke-width="5" stroke="black" stroke-linejoin="round"></path></svg></g></svg></g><g transform="matrix(1,0,0,1,2.5,85.95436211931285)"><svg viewBox="0 0 390.52 30.928719654611083" height="30.928719654611083" width="390.52"><g transform="matrix(1,0,0,1,0,0)"><svg width="390.52" viewBox="-0.75 -39.25 707.37 56.95" height="30.928719654611083" data-palette-color="#cb1106"><path d="M13.75 0.55L13.75 0.55Q10.55 0.55 7.93-1 5.3-2.55 3.78-5.18 2.25-7.8 2.25-11L2.25-11Q2.25-14.3 3.78-16.95 5.3-19.6 7.93-21.15 10.55-22.7 13.75-22.7L13.75-22.7Q17-22.7 19.6-21.15 22.2-19.6 23.73-16.95 25.25-14.3 25.25-11L25.25-11Q25.25-7.8 23.73-5.18 22.2-2.55 19.6-1 17 0.55 13.75 0.55ZM13.75-0.7L13.75-0.7Q16.45-0.7 18.1-2.08 19.75-3.45 20.5-5.78 21.25-8.1 21.25-11L21.25-11Q21.25-14 20.5-16.35 19.75-18.7 18.1-20.08 16.45-21.45 13.75-21.45L13.75-21.45Q11.05-21.45 9.4-20.08 7.75-18.7 7-16.35 6.25-14 6.25-11L6.25-11Q6.25-8.1 7-5.78 7.75-3.45 9.4-2.08 11.05-0.7 13.75-0.7ZM38.2 0.55L38.2 0.55Q35.75 0.55 34.22-0.93 32.7-2.4 32.7-5.75L32.7-5.75 32.7-20.55 29-20.55 29-21.8 30.35-21.9Q32.4-22.05 33.47-23.58 34.55-25.1 34.9-27.85L34.9-27.85 36.2-27.85 36.2-21.8 42.6-21.8 42.6-20.55 36.2-20.55 36.2-5.55Q36.2-1.15 39.3-1.15L39.3-1.15Q40.6-1.15 41.4-2.02 42.2-2.9 42.85-4.2L42.85-4.2 43.95-3.65Q43.65-2.9 43.22-2.27 42.8-1.65 42.4-1.2L42.4-1.2Q41.55-0.25 40.47 0.15 39.4 0.55 38.2 0.55ZM51.34 0L45.2 0.15 45.2-1 45.99-1.1Q47.45-1.3 48.22-1.58 48.99-1.85 49.3-2.83 49.59-3.8 49.59-6.05L49.59-6.05 49.59-30.45Q49.59-33.05 48.52-33.77 47.45-34.5 45.55-34.5L45.55-34.5 45.2-34.5 45.2-35.65Q47.24-35.65 49.15-35.77 51.05-35.9 53.09-36.25L53.09-36.25 53.09-18.35Q54.25-20.05 56.34-21.38 58.45-22.7 61.25-22.7L61.25-22.7Q64.65-22.7 66.62-20.98 68.59-19.25 68.59-16.05L68.59-16.05 68.59-6.05Q68.59-3.8 68.9-2.83 69.19-1.85 69.97-1.58 70.75-1.3 72.19-1.1L72.19-1.1 73-1 73 0.15 66.84 0 60.7 0.15 60.7-1 61.5-1.1Q62.95-1.3 63.72-1.58 64.5-1.85 64.8-2.83 65.09-3.8 65.09-6.05L65.09-6.05 65.09-16.05Q65.09-18.55 63.8-19.88 62.5-21.2 60.15-21.2L60.15-21.2Q58.34-21.2 56.9-20.38 55.45-19.55 54.5-18.35 53.55-17.15 53.09-16.05L53.09-16.05 53.09-6.05Q53.09-3.8 53.4-2.83 53.7-1.85 54.47-1.58 55.25-1.3 56.7-1.1L56.7-1.1 57.5-1 57.5 0.15 51.34 0ZM86.74 0.55L86.74 0.55Q83.44 0.55 80.99-0.88 78.54-2.3 77.17-4.83 75.79-7.35 75.79-10.6L75.79-10.6Q75.79-14.1 77.29-16.82 78.79-19.55 81.32-21.13 83.84-22.7 86.89-22.7L86.89-22.7Q90.74-22.7 92.92-20.25 95.09-17.8 95.09-13.8L95.09-13.8Q95.09-13.2 95.04-12.8 94.99-12.4 94.94-12.25L94.94-12.25 79.84-12.25Q79.79-11.55 79.79-10.85L79.79-10.85Q79.79-8.2 80.64-5.93 81.49-3.65 83.22-2.3 84.94-0.95 87.44-0.95L87.44-0.95Q89.79-0.95 91.62-2.27 93.44-3.6 94.44-6.2L94.44-6.2 95.64-5.75Q93.54 0.55 86.74 0.55ZM86.89-21.45L86.89-21.45Q83.79-21.45 82.07-19.25 80.34-17.05 79.94-13.4L79.94-13.4 86.29-13.4Q88.54-13.4 89.72-13.93 90.89-14.45 91.32-15.23 91.74-16 91.74-16.75L91.74-16.75Q91.74-18.95 90.24-20.2 88.74-21.45 86.89-21.45ZM104.94 0L98.79 0.15 98.79-1 99.59-1.1Q101.04-1.3 101.82-1.58 102.59-1.85 102.89-2.83 103.19-3.8 103.19-6.05L103.19-6.05 103.19-16.45Q103.19-18.4 102.67-19.3 102.14-20.2 101.14-20.43 100.14-20.65 98.79-20.65L98.79-20.65 98.79-21.8Q100.84-21.8 102.74-21.95 104.64-22.1 106.69-22.4L106.69-22.4 106.14-16.65 106.34-16.65Q107.44-20 109.04-21.35 110.64-22.7 112.49-22.7L112.49-22.7Q114.59-22.7 115.29-21.68 115.99-20.65 115.99-19.7L115.99-19.7Q115.99-18.6 115.34-17.9 114.69-17.2 113.59-17.2L113.59-17.2Q112.54-17.2 111.99-17.7 111.44-18.2 111.44-18.85L111.44-18.85Q111.44-19.35 111.57-19.8 111.69-20.25 111.69-20.5L111.69-20.5Q111.69-21 110.99-21L110.99-21Q110.29-21 109.52-20.35 108.74-19.7 108.19-18.55L108.19-18.55Q107.74-17.6 107.34-16.45 106.94-15.3 106.69-13.95L106.69-13.95 106.69-6.05Q106.69-3.8 106.99-2.83 107.29-1.85 108.07-1.58 108.84-1.3 110.29-1.1L110.29-1.1 111.09-1 111.09 0.15 104.94 0ZM141.59 0L139.69 0 133.53-16.95Q132.94-18.6 132.13-19.55 131.34-20.5 130.09-20.6L130.09-20.6 129.53-20.65 129.53-21.8 134.84-21.65 139.74-21.8 139.74-20.65 139.24-20.6Q136.74-20.4 136.74-18.7L136.74-18.7Q136.74-18.4 136.78-18.05 136.84-17.7 136.99-17.3L136.99-17.3 141.84-3.85 147.38-16.4Q147.63-17 147.81-17.53 147.99-18.05 147.99-18.45L147.99-18.45Q147.99-20.5 145.94-20.6L145.94-20.6 144.38-20.65 144.38-21.8 146.13-21.8Q147.99-21.8 148.84-20.3L148.84-20.3Q149.19-21.15 150.21-21.48 151.24-21.8 152.09-21.8L152.09-21.8 154.38-21.8 154.38-20.65 153.63-20.6Q152.74-20.55 152.34-20.08 151.94-19.6 151.94-18.9L151.94-18.9Q151.94-18.25 152.34-17.2L152.34-17.2 157.53-3.9 162.74-17.1Q162.84-17.45 163.01-17.95 163.19-18.45 163.19-18.75L163.19-18.75Q163.19-20.25 160.74-20.55L160.74-20.55 159.94-20.65 159.94-21.8 164.63-21.65 168.59-21.8 168.59-20.65 167.78-20.55Q166.03-20.35 165.31-19.3 164.59-18.25 164.03-16.95L164.03-16.95 157.34 0 155.44 0 148.94-16.75 141.59 0ZM180.83 0.55L180.83 0.55Q177.63 0.55 175.01-1 172.38-2.55 170.86-5.18 169.33-7.8 169.33-11L169.33-11Q169.33-14.3 170.86-16.95 172.38-19.6 175.01-21.15 177.63-22.7 180.83-22.7L180.83-22.7Q184.08-22.7 186.68-21.15 189.28-19.6 190.81-16.95 192.33-14.3 192.33-11L192.33-11Q192.33-7.8 190.81-5.18 189.28-2.55 186.68-1 184.08 0.55 180.83 0.55ZM180.83-0.7L180.83-0.7Q183.53-0.7 185.18-2.08 186.83-3.45 187.58-5.78 188.33-8.1 188.33-11L188.33-11Q188.33-14 187.58-16.35 186.83-18.7 185.18-20.08 183.53-21.45 180.83-21.45L180.83-21.45Q178.13-21.45 176.48-20.08 174.83-18.7 174.08-16.35 173.33-14 173.33-11L173.33-11Q173.33-8.1 174.08-5.78 174.83-3.45 176.48-2.08 178.13-0.7 180.83-0.7ZM202.13 0L195.98 0.15 195.98-1 196.78-1.1Q198.23-1.3 199.01-1.58 199.78-1.85 200.08-2.83 200.38-3.8 200.38-6.05L200.38-6.05 200.38-16.45Q200.38-18.4 199.86-19.3 199.33-20.2 198.33-20.43 197.33-20.65 195.98-20.65L195.98-20.65 195.98-21.8Q198.03-21.8 199.93-21.95 201.83-22.1 203.88-22.4L203.88-22.4 203.33-16.65 203.53-16.65Q204.63-20 206.23-21.35 207.83-22.7 209.68-22.7L209.68-22.7Q211.78-22.7 212.48-21.68 213.18-20.65 213.18-19.7L213.18-19.7Q213.18-18.6 212.53-17.9 211.88-17.2 210.78-17.2L210.78-17.2Q209.73-17.2 209.18-17.7 208.63-18.2 208.63-18.85L208.63-18.85Q208.63-19.35 208.76-19.8 208.88-20.25 208.88-20.5L208.88-20.5Q208.88-21 208.18-21L208.18-21Q207.48-21 206.71-20.35 205.93-19.7 205.38-18.55L205.38-18.55Q204.93-17.6 204.53-16.45 204.13-15.3 203.88-13.95L203.88-13.95 203.88-6.05Q203.88-3.8 204.18-2.83 204.48-1.85 205.26-1.58 206.03-1.3 207.48-1.1L207.48-1.1 208.28-1 208.28 0.15 202.13 0ZM221.08 0L214.93 0.15 214.93-1 215.73-1.1Q217.18-1.3 217.95-1.58 218.73-1.85 219.03-2.83 219.33-3.8 219.33-6.05L219.33-6.05 219.33-30.45Q219.33-33.05 218.25-33.77 217.18-34.5 215.28-34.5L215.28-34.5 214.93-34.5 214.93-35.65Q216.98-35.65 218.88-35.77 220.78-35.9 222.83-36.25L222.83-36.25 222.83-6.05Q222.83-3.8 223.13-2.83 223.43-1.85 224.2-1.58 224.98-1.3 226.43-1.1L226.43-1.1 227.23-1 227.23 0.15 221.08 0ZM240.38 0.55L240.38 0.55Q237.53 0.55 235.23-1 232.93-2.55 231.58-5.23 230.23-7.9 230.23-11.15L230.23-11.15Q230.23-14.4 231.58-17 232.93-19.6 235.28-21.15 237.63-22.7 240.58-22.7L240.58-22.7Q242.68-22.7 244.43-21.83 246.18-20.95 247.33-19.85L247.33-19.85 247.33-30.45Q247.33-33.05 246.25-33.77 245.18-34.5 243.28-34.5L243.28-34.5 242.93-34.5 242.93-35.65Q244.98-35.65 246.88-35.77 248.78-35.9 250.83-36.25L250.83-36.25 250.83-5.45Q250.83-2.65 251.9-1.9 252.98-1.15 254.98-1.15L254.98-1.15 254.98 0 252.93 0Q251.83 0 250.78 0.08 249.73 0.15 248.43 0.4L248.43 0.4 247.78-3.1Q246.43-1.5 244.55-0.48 242.68 0.55 240.38 0.55ZM234.23-11.15L234.23-11.15Q234.23-8.25 234.95-5.95 235.68-3.65 237.15-2.3 238.63-0.95 240.88-0.95L240.88-0.95Q243.03-0.95 244.6-1.93 246.18-2.9 247.33-4.3L247.33-4.3 247.33-17.8Q246.48-19.1 244.78-20.15 243.08-21.2 241.03-21.2L241.03-21.2Q238.73-21.2 237.23-19.88 235.73-18.55 234.98-16.28 234.23-14 234.23-11.15ZM265.82 0.55L265.82 0.55Q263.92 0.55 262.6 0.13 261.27-0.3 260.52-0.65L260.52-0.65Q259.72-1.05 259.52-1.05L259.52-1.05Q259.32-1.05 259.2-0.88 259.07-0.7 258.92 0L258.92 0 257.77 0 257.97-3.3 258.12-7.55 259.22-7.55 259.27-6.7Q259.37-5.3 260.2-3.9 261.02-2.5 262.47-1.55 263.92-0.6 265.82-0.6L265.82-0.6Q267.87-0.6 269.12-1.65 270.37-2.7 270.37-4.55L270.37-4.55Q270.37-6.15 269.1-7.25 267.82-8.35 265.57-9.2L265.57-9.2 263.77-9.9Q261.17-10.9 259.85-12.4 258.52-13.9 258.52-16.25L258.52-16.25Q258.52-18.25 259.45-19.68 260.37-21.1 261.9-21.9 263.42-22.7 265.17-22.7L265.17-22.7Q266.42-22.7 267.3-22.4 268.17-22.1 268.77-21.8L268.77-21.8Q269.27-21.55 269.62-21.55L269.62-21.55Q270.12-21.55 270.42-22.6L270.42-22.6 271.52-22.55 271.32-19.3 271.32-15.8 270.17-15.8Q269.82-18.15 268.57-19.88 267.32-21.6 264.97-21.6L264.97-21.6Q263.32-21.6 262.2-20.55 261.07-19.5 261.07-17.9L261.07-17.9Q261.07-16.35 262.25-15.33 263.42-14.3 265.47-13.5L265.47-13.5 267.42-12.75Q270.47-11.6 271.65-9.98 272.82-8.35 272.82-6.1L272.82-6.1Q272.82-3.45 271.02-1.45 269.22 0.55 265.82 0.55ZM296.12 0.55L296.12 0.55Q293.72 0.55 292.14-0.68 290.57-1.9 290.57-4.1L290.57-4.1Q290.57-6.3 292.52-8.03 294.47-9.75 297.07-11.15L297.07-11.15Q299.02-12.25 300.97-13.05 302.92-13.85 304.32-14.4L304.32-14.4 304.32-16Q304.32-18.75 303.29-20.1 302.27-21.45 299.42-21.45L299.42-21.45Q298.07-21.45 296.77-21.1 295.47-20.75 295.47-19.8L295.47-19.8Q295.47-19.6 295.54-19.35 295.62-19.1 295.67-18.85L295.67-18.85Q295.92-18.2 295.92-17.5L295.92-17.5Q295.92-16.55 295.24-16.03 294.57-15.5 293.62-15.5L293.62-15.5Q292.72-15.5 292.12-16.18 291.52-16.85 291.52-17.8L291.52-17.8Q291.52-19.6 292.89-20.68 294.27-21.75 296.27-22.23 298.27-22.7 300.12-22.7L300.12-22.7Q304.12-22.7 305.97-20.85 307.82-19 307.82-14.8L307.82-14.8 307.82-5.8Q307.82-3.6 308.14-2.4 308.47-1.2 309.62-1.2L309.62-1.2Q310.37-1.2 310.92-1.75 311.47-2.3 311.67-2.95L311.67-2.95 312.57-2.6Q312.17-1.15 311.14-0.3 310.12 0.55 308.32 0.55L308.32 0.55Q306.12 0.55 305.29-0.73 304.47-2 304.37-4.1L304.37-4.1Q302.97-1.85 300.82-0.65 298.67 0.55 296.12 0.55ZM294.47-4.35L294.47-4.35Q294.47-2.95 295.29-2.13 296.12-1.3 297.72-1.3L297.72-1.3Q299.17-1.3 300.49-2 301.82-2.7 302.82-3.78 303.82-4.85 304.32-6.1L304.32-6.1 304.32-13.4Q302.67-12.7 300.94-11.78 299.22-10.85 297.74-9.7 296.27-8.55 295.37-7.23 294.47-5.9 294.47-4.35ZM320.12 0L313.96 0.15 313.96-1 314.76-1.1Q316.21-1.3 316.99-1.58 317.76-1.85 318.06-2.83 318.37-3.8 318.37-6.05L318.37-6.05 318.37-16.45Q318.37-18.4 317.84-19.3 317.31-20.2 316.31-20.43 315.31-20.65 313.96-20.65L313.96-20.65 313.96-21.8Q316.01-21.8 317.92-21.95 319.81-22.1 321.87-22.4L321.87-22.4 321.31-16.65 321.51-16.65Q322.62-20 324.21-21.35 325.81-22.7 327.67-22.7L327.67-22.7Q329.76-22.7 330.46-21.68 331.17-20.65 331.17-19.7L331.17-19.7Q331.17-18.6 330.51-17.9 329.87-17.2 328.76-17.2L328.76-17.2Q327.71-17.2 327.17-17.7 326.62-18.2 326.62-18.85L326.62-18.85Q326.62-19.35 326.74-19.8 326.87-20.25 326.87-20.5L326.87-20.5Q326.87-21 326.17-21L326.17-21Q325.46-21 324.69-20.35 323.92-19.7 323.37-18.55L323.37-18.55Q322.92-17.6 322.51-16.45 322.12-15.3 321.87-13.95L321.87-13.95 321.87-6.05Q321.87-3.8 322.17-2.83 322.46-1.85 323.24-1.58 324.01-1.3 325.46-1.1L325.46-1.1 326.26-1 326.26 0.15 320.12 0ZM344.86 0.55L344.86 0.55Q341.56 0.55 339.11-0.88 336.66-2.3 335.29-4.83 333.91-7.35 333.91-10.6L333.91-10.6Q333.91-14.1 335.41-16.82 336.91-19.55 339.44-21.13 341.96-22.7 345.01-22.7L345.01-22.7Q348.86-22.7 351.04-20.25 353.21-17.8 353.21-13.8L353.21-13.8Q353.21-13.2 353.16-12.8 353.11-12.4 353.06-12.25L353.06-12.25 337.96-12.25Q337.91-11.55 337.91-10.85L337.91-10.85Q337.91-8.2 338.76-5.93 339.61-3.65 341.34-2.3 343.06-0.95 345.56-0.95L345.56-0.95Q347.91-0.95 349.74-2.27 351.56-3.6 352.56-6.2L352.56-6.2 353.76-5.75Q351.66 0.55 344.86 0.55ZM345.01-21.45L345.01-21.45Q341.91-21.45 340.19-19.25 338.46-17.05 338.06-13.4L338.06-13.4 344.41-13.4Q346.66-13.4 347.84-13.93 349.01-14.45 349.44-15.23 349.86-16 349.86-16.75L349.86-16.75Q349.86-18.95 348.36-20.2 346.86-21.45 345.01-21.45ZM380.11 0L378.21 0 372.06-16.95Q371.46-18.6 370.66-19.55 369.86-20.5 368.61-20.6L368.61-20.6 368.06-20.65 368.06-21.8 373.36-21.65 378.26-21.8 378.26-20.65 377.76-20.6Q375.26-20.4 375.26-18.7L375.26-18.7Q375.26-18.4 375.31-18.05 375.36-17.7 375.51-17.3L375.51-17.3 380.36-3.85 385.91-16.4Q386.16-17 386.33-17.53 386.51-18.05 386.51-18.45L386.51-18.45Q386.51-20.5 384.46-20.6L384.46-20.6 382.91-20.65 382.91-21.8 384.66-21.8Q386.51-21.8 387.36-20.3L387.36-20.3Q387.71-21.15 388.73-21.48 389.76-21.8 390.61-21.8L390.61-21.8 392.91-21.8 392.91-20.65 392.16-20.6Q391.26-20.55 390.86-20.08 390.46-19.6 390.46-18.9L390.46-18.9Q390.46-18.25 390.86-17.2L390.86-17.2 396.06-3.9 401.26-17.1Q401.36-17.45 401.53-17.95 401.71-18.45 401.71-18.75L401.71-18.75Q401.71-20.25 399.26-20.55L399.26-20.55 398.46-20.65 398.46-21.8 403.16-21.65 407.11-21.8 407.11-20.65 406.31-20.55Q404.56-20.35 403.83-19.3 403.11-18.25 402.56-16.95L402.56-16.95 395.86 0 393.96 0 387.46-16.75 380.11 0ZM414.36 0.55L414.36 0.55Q411.96 0.55 410.38-0.68 408.81-1.9 408.81-4.1L408.81-4.1Q408.81-6.3 410.76-8.03 412.71-9.75 415.31-11.15L415.31-11.15Q417.26-12.25 419.21-13.05 421.16-13.85 422.56-14.4L422.56-14.4 422.56-16Q422.56-18.75 421.53-20.1 420.51-21.45 417.66-21.45L417.66-21.45Q416.31-21.45 415.01-21.1 413.71-20.75 413.71-19.8L413.71-19.8Q413.71-19.6 413.78-19.35 413.86-19.1 413.91-18.85L413.91-18.85Q414.16-18.2 414.16-17.5L414.16-17.5Q414.16-16.55 413.48-16.03 412.81-15.5 411.86-15.5L411.86-15.5Q410.96-15.5 410.36-16.18 409.76-16.85 409.76-17.8L409.76-17.8Q409.76-19.6 411.13-20.68 412.51-21.75 414.51-22.23 416.51-22.7 418.36-22.7L418.36-22.7Q422.36-22.7 424.21-20.85 426.06-19 426.06-14.8L426.06-14.8 426.06-5.8Q426.06-3.6 426.38-2.4 426.71-1.2 427.86-1.2L427.86-1.2Q428.61-1.2 429.16-1.75 429.71-2.3 429.91-2.95L429.91-2.95 430.81-2.6Q430.41-1.15 429.38-0.3 428.36 0.55 426.56 0.55L426.56 0.55Q424.36 0.55 423.53-0.73 422.71-2 422.61-4.1L422.61-4.1Q421.21-1.85 419.06-0.65 416.91 0.55 414.36 0.55ZM412.71-4.35L412.71-4.35Q412.71-2.95 413.53-2.13 414.36-1.3 415.96-1.3L415.96-1.3Q417.41-1.3 418.73-2 420.06-2.7 421.06-3.78 422.06-4.85 422.56-6.1L422.56-6.1 422.56-13.4Q420.91-12.7 419.18-11.78 417.46-10.85 415.98-9.7 414.51-8.55 413.61-7.23 412.71-5.9 412.71-4.35ZM438.35 0L432.2 0.15 432.2-1 433-1.1Q434.45-1.3 435.23-1.58 436-1.85 436.3-2.83 436.6-3.8 436.6-6.05L436.6-6.05 436.6-16.6Q436.6-19.2 435.53-19.93 434.45-20.65 432.55-20.65L432.55-20.65 432.2-20.65 432.2-21.8Q434.25-21.8 436.15-21.93 438.05-22.05 440.1-22.4L440.1-22.4 440.1-6.05Q440.1-3.8 440.4-2.83 440.7-1.85 441.48-1.58 442.25-1.3 443.7-1.1L443.7-1.1 444.5-1 444.5 0.15 438.35 0ZM437.75-28.25L437.75-28.25Q436.45-28.25 435.7-29.15 434.95-30.05 434.95-31.3L434.95-31.3Q434.95-32.6 435.7-33.48 436.45-34.35 437.75-34.35L437.75-34.35Q439.2-34.35 439.88-33.48 440.55-32.6 440.55-31.3L440.55-31.3Q440.55-30.05 439.88-29.15 439.2-28.25 437.75-28.25ZM455.7 0.55L455.7 0.55Q453.25 0.55 451.73-0.93 450.2-2.4 450.2-5.75L450.2-5.75 450.2-20.55 446.5-20.55 446.5-21.8 447.85-21.9Q449.9-22.05 450.98-23.58 452.05-25.1 452.4-27.85L452.4-27.85 453.7-27.85 453.7-21.8 460.1-21.8 460.1-20.55 453.7-20.55 453.7-5.55Q453.7-1.15 456.8-1.15L456.8-1.15Q458.1-1.15 458.9-2.02 459.7-2.9 460.35-4.2L460.35-4.2 461.45-3.65Q461.15-2.9 460.73-2.27 460.3-1.65 459.9-1.2L459.9-1.2Q459.05-0.25 457.98 0.15 456.9 0.55 455.7 0.55ZM469.5 0L463.35 0.15 463.35-1 464.15-1.1Q465.6-1.3 466.37-1.58 467.15-1.85 467.45-2.83 467.75-3.8 467.75-6.05L467.75-6.05 467.75-16.6Q467.75-19.2 466.67-19.93 465.6-20.65 463.7-20.65L463.7-20.65 463.35-20.65 463.35-21.8Q465.4-21.8 467.3-21.93 469.2-22.05 471.25-22.4L471.25-22.4 471.25-6.05Q471.25-3.8 471.55-2.83 471.85-1.85 472.62-1.58 473.4-1.3 474.85-1.1L474.85-1.1 475.65-1 475.65 0.15 469.5 0ZM468.9-28.25L468.9-28.25Q467.6-28.25 466.85-29.15 466.1-30.05 466.1-31.3L466.1-31.3Q466.1-32.6 466.85-33.48 467.6-34.35 468.9-34.35L468.9-34.35Q470.35-34.35 471.02-33.48 471.7-32.6 471.7-31.3L471.7-31.3Q471.7-30.05 471.02-29.15 470.35-28.25 468.9-28.25ZM483.7 0L477.55 0.15 477.55-1 478.35-1.1Q479.8-1.3 480.57-1.58 481.35-1.85 481.65-2.83 481.95-3.8 481.95-6.05L481.95-6.05 481.95-16.6Q481.95-19.2 480.87-19.93 479.8-20.65 477.9-20.65L477.9-20.65 477.55-20.65 477.55-21.8Q479.6-21.8 481.5-21.93 483.4-22.05 485.45-22.4L485.45-22.4 485.45-18.35Q486.6-20.05 488.7-21.38 490.8-22.7 493.6-22.7L493.6-22.7Q497-22.7 498.97-20.98 500.95-19.25 500.95-16.05L500.95-16.05 500.95-6.05Q500.95-3.8 501.25-2.83 501.55-1.85 502.32-1.58 503.1-1.3 504.55-1.1L504.55-1.1 505.35-1 505.35 0.15 499.2 0 493.05 0.15 493.05-1 493.85-1.1Q495.3-1.3 496.07-1.58 496.85-1.85 497.15-2.83 497.45-3.8 497.45-6.05L497.45-6.05 497.45-16.05Q497.45-18.55 496.15-19.88 494.85-21.2 492.5-21.2L492.5-21.2Q490.7-21.2 489.25-20.38 487.8-19.55 486.85-18.35 485.9-17.15 485.45-16.05L485.45-16.05 485.45-6.05Q485.45-3.8 485.75-2.83 486.05-1.85 486.82-1.58 487.6-1.3 489.05-1.1L489.05-1.1 489.85-1 489.85 0.15 483.7 0ZM518.49-6.6L518.49-6.6Q516.79-6.6 515.19-7.1L515.19-7.1Q513.84-6.8 512.67-6.08 511.49-5.35 511.49-4.15L511.49-4.15Q511.49-3.1 512.24-2.58 512.99-2.05 514.19-1.88 515.39-1.7 516.79-1.6L516.79-1.6 518.99-1.5Q522.14-1.35 524.69-0.83 527.24-0.3 528.77 1.2 530.29 2.7 530.29 5.8L530.29 5.8Q530.29 8.65 528.62 10.63 526.94 12.6 524.27 13.65 521.59 14.7 518.49 14.7L518.49 14.7Q515.39 14.7 512.62 13.85 509.84 13 508.12 11.25 506.39 9.5 506.39 6.75L506.39 6.75Q506.39 5.15 507.17 4.1 507.94 3.05 509.19 3.05L509.19 3.05Q510.04 3.05 510.64 3.53 511.24 4 511.24 4.95L511.24 4.95Q511.24 5.8 510.94 6.33 510.64 6.85 510.32 7.4 509.99 7.95 509.99 8.8L509.99 8.8Q509.99 10.5 511.17 11.53 512.34 12.55 514.27 13 516.19 13.45 518.49 13.45L518.49 13.45Q521.04 13.45 523.19 12.7 525.34 11.95 526.67 10.48 527.99 9 527.99 6.85L527.99 6.85Q527.99 4.6 526.22 3.58 524.44 2.55 520.74 2.35L520.74 2.35 515.64 2.1Q514.14 2 512.47 1.7 510.79 1.4 509.64 0.48 508.49-0.45 508.49-2.3L508.49-2.3Q508.49-4.25 510.12-5.7 511.74-7.15 513.74-7.7L513.74-7.7Q511.74-8.75 510.49-10.55 509.24-12.35 509.24-14.65L509.24-14.65Q509.24-16.95 510.47-18.75 511.69-20.55 513.79-21.63 515.89-22.7 518.49-22.7L518.49-22.7Q521.49-22.7 523.84-21.25L523.84-21.25Q524.89-22.7 526.39-23.33 527.89-23.95 529.39-23.95L529.39-23.95Q530.94-23.95 532.07-23.18 533.19-22.4 533.19-21.1L533.19-21.1Q533.19-20.05 532.52-19.48 531.84-18.9 531.04-18.9L531.04-18.9Q529.19-18.9 528.79-21L528.79-21Q528.69-21.6 528.37-22 528.04-22.4 527.39-22.4L527.39-22.4Q526.59-22.4 525.92-21.83 525.24-21.25 524.79-20.6L524.79-20.6Q526.14-19.5 526.94-17.95 527.74-16.4 527.74-14.65L527.74-14.65Q527.74-12.4 526.52-10.58 525.29-8.75 523.19-7.68 521.09-6.6 518.49-6.6ZM518.49-7.85L518.49-7.85Q521.44-7.85 522.67-9.8 523.89-11.75 523.89-14.65L523.89-14.65Q523.89-17.55 522.67-19.5 521.44-21.45 518.49-21.45L518.49-21.45Q515.59-21.45 514.34-19.5 513.09-17.55 513.09-14.65L513.09-14.65Q513.09-11.75 514.34-9.8 515.59-7.85 518.49-7.85ZM554.19 0L548.04 0.15 548.04-1 548.84-1.1Q550.29-1.3 551.06-1.58 551.84-1.85 552.14-2.83 552.44-3.8 552.44-6.05L552.44-6.05 552.44-20.55 548.14-20.55 548.14-21.8 552.44-21.8 552.44-27.5Q552.44-32.1 554.46-34.15 556.49-36.2 560.44-36.2L560.44-36.2Q562.99-36.2 564.69-35.18 566.39-34.15 566.39-32.15L566.39-32.15Q566.39-30.85 565.66-30.18 564.94-29.5 563.94-29.5L563.94-29.5Q562.99-29.5 562.36-30.15 561.74-30.8 561.74-31.6L561.74-31.6Q561.74-32.1 561.84-32.45 561.94-32.8 562.04-33.1L562.04-33.1Q562.19-33.5 562.19-33.75L562.19-33.75Q562.19-34.4 561.64-34.68 561.09-34.95 560.44-34.95L560.44-34.95Q558.54-34.95 557.56-33.95 556.59-32.95 556.26-31.25 555.94-29.55 555.94-27.5L555.94-27.5 555.94-21.8 561.09-21.8 561.09-20.55 555.94-20.55 555.94-6.05Q555.94-3.8 556.24-2.83 556.54-1.85 557.31-1.58 558.09-1.3 559.54-1.1L559.54-1.1 560.34-1 560.34 0.15 554.19 0ZM576.49 0.55L576.49 0.55Q573.28 0.55 570.66-1 568.03-2.55 566.51-5.18 564.99-7.8 564.99-11L564.99-11Q564.99-14.3 566.51-16.95 568.03-19.6 570.66-21.15 573.28-22.7 576.49-22.7L576.49-22.7Q579.74-22.7 582.34-21.15 584.94-19.6 586.46-16.95 587.99-14.3 587.99-11L587.99-11Q587.99-7.8 586.46-5.18 584.94-2.55 582.34-1 579.74 0.55 576.49 0.55ZM576.49-0.7L576.49-0.7Q579.19-0.7 580.84-2.08 582.49-3.45 583.24-5.78 583.99-8.1 583.99-11L583.99-11Q583.99-14 583.24-16.35 582.49-18.7 580.84-20.08 579.19-21.45 576.49-21.45L576.49-21.45Q573.78-21.45 572.13-20.08 570.49-18.7 569.74-16.35 568.99-14 568.99-11L568.99-11Q568.99-8.1 569.74-5.78 570.49-3.45 572.13-2.08 573.78-0.7 576.49-0.7ZM597.78 0L591.63 0.15 591.63-1 592.43-1.1Q593.88-1.3 594.66-1.58 595.43-1.85 595.73-2.83 596.03-3.8 596.03-6.05L596.03-6.05 596.03-16.45Q596.03-18.4 595.51-19.3 594.98-20.2 593.98-20.43 592.98-20.65 591.63-20.65L591.63-20.65 591.63-21.8Q593.68-21.8 595.58-21.95 597.48-22.1 599.53-22.4L599.53-22.4 598.98-16.65 599.18-16.65Q600.28-20 601.88-21.35 603.48-22.7 605.33-22.7L605.33-22.7Q607.43-22.7 608.13-21.68 608.83-20.65 608.83-19.7L608.83-19.7Q608.83-18.6 608.18-17.9 607.53-17.2 606.43-17.2L606.43-17.2Q605.38-17.2 604.83-17.7 604.28-18.2 604.28-18.85L604.28-18.85Q604.28-19.35 604.41-19.8 604.53-20.25 604.53-20.5L604.53-20.5Q604.53-21 603.83-21L603.83-21Q603.13-21 602.36-20.35 601.58-19.7 601.03-18.55L601.03-18.55Q600.58-17.6 600.18-16.45 599.78-15.3 599.53-13.95L599.53-13.95 599.53-6.05Q599.53-3.8 599.83-2.83 600.13-1.85 600.91-1.58 601.68-1.3 603.13-1.1L603.13-1.1 603.93-1 603.93 0.15 597.78 0ZM624.93 14.7L624.93 14.7Q623.23 14.7 622.38 13.88 621.53 13.05 621.53 12.05L621.53 12.05Q621.53 11.05 622.25 10.38 622.98 9.7 624.08 9.7L624.08 9.7Q624.78 9.7 625.18 9.93 625.58 10.15 625.93 10.4L625.93 10.4Q626.28 10.65 626.73 10.93 627.18 11.2 627.78 11.2L627.78 11.2Q628.68 11.2 629.65 10.5 630.63 9.8 631.68 7.6L631.68 7.6 634.98 0.5 626.68-17.7Q626.18-18.85 625.58-19.6 624.98-20.35 623.73-20.5L623.73-20.5 622.58-20.65 622.58-21.8 627.78-21.65 632.83-21.8 632.83-20.65 632.13-20.55Q630.03-20.25 630.03-19L630.03-19Q630.03-18.4 630.58-17.2L630.58-17.2 636.83-3.5 643.08-16.95Q643.63-18.2 643.63-18.9L643.63-18.9Q643.63-20.25 641.18-20.55L641.18-20.55 640.38-20.65 640.38-21.8 645.18-21.65 649.18-21.8 649.18-20.65 648.43-20.55Q646.58-20.3 645.75-19.2 644.93-18.1 644.23-16.5L644.23-16.5 632.93 8.15Q632.13 9.85 631.05 11.35 629.98 12.85 628.5 13.78 627.03 14.7 624.93 14.7ZM661.82 0.55L661.82 0.55Q658.62 0.55 656-1 653.37-2.55 651.85-5.18 650.32-7.8 650.32-11L650.32-11Q650.32-14.3 651.85-16.95 653.37-19.6 656-21.15 658.62-22.7 661.82-22.7L661.82-22.7Q665.07-22.7 667.67-21.15 670.27-19.6 671.8-16.95 673.32-14.3 673.32-11L673.32-11Q673.32-7.8 671.8-5.18 670.27-2.55 667.67-1 665.07 0.55 661.82 0.55ZM661.82-0.7L661.82-0.7Q664.52-0.7 666.17-2.08 667.82-3.45 668.57-5.78 669.32-8.1 669.32-11L669.32-11Q669.32-14 668.57-16.35 667.82-18.7 666.17-20.08 664.52-21.45 661.82-21.45L661.82-21.45Q659.12-21.45 657.47-20.08 655.82-18.7 655.07-16.35 654.32-14 654.32-11L654.32-11Q654.32-8.1 655.07-5.78 655.82-3.45 657.47-2.08 659.12-0.7 661.82-0.7ZM687.47 0.55L687.47 0.55Q684.22 0.55 682.35-1.07 680.47-2.7 680.47-5.9L680.47-5.9 680.47-15.6Q680.47-17.85 680.17-18.82 679.87-19.8 679.1-20.1 678.32-20.4 676.87-20.55L676.87-20.55 676.07-20.65 676.07-21.8 682.22-21.65 683.97-21.7 683.97-6.1Q683.97-3.65 685.22-2.35 686.47-1.05 688.62-1.05L688.62-1.05Q690.47-1.05 691.9-1.88 693.32-2.7 694.35-4 695.37-5.3 695.97-6.65L695.97-6.65 695.97-15.6Q695.97-17.85 695.67-18.82 695.37-19.8 694.6-20.1 693.82-20.4 692.37-20.55L692.37-20.55 691.57-20.65 691.57-21.8 697.72-21.65 699.47-21.7 699.47-5.55Q699.47-3.65 699.95-2.73 700.42-1.8 701.35-1.5 702.27-1.2 703.62-1.2L703.62-1.2 703.62-0.05Q701.57-0.05 699.87 0 698.17 0.05 695.97 0.45L695.97 0.45 695.97-4.15Q695.47-3.35 694.92-2.75L694.92-2.75Q693.62-1.3 691.77-0.38 689.92 0.55 687.47 0.55Z" opacity="1" transform="matrix(1,0,0,1,0,0)" fill="black" class="slogan-text-1" id="SvgjsPath9220" stroke-width="5" stroke="black" stroke-linejoin="round"></path></svg></g></svg></g></svg></g></svg></g></svg></g></svg></g></svg></g></mask><g mask="url(#a7162ee6-ad74-4c90-8e06-33ea50a1c44f)"><g><path d="M219.695 247.2v0h-43.059c-1.042 0-1.611-0.568-1.705-1.705v0l-49.099-244.074c-0.237-0.947 0.213-1.421 1.35-1.421v0h40.288c0.9 0 1.468 0.474 1.705 1.421v0l29.133 162.716 28.493-162.716c0.237-0.947 0.805-1.421 1.705-1.421v0h39.72c1.279 0 1.753 0.474 1.421 1.421v0l-48.246 244.074c-0.095 1.137-0.663 1.705-1.706 1.705z" fill="#cb1106" fill-rule="nonzero" stroke="none" stroke-width="1" stroke-linecap="butt" stroke-linejoin="miter" stroke-miterlimit="10" stroke-dasharray="" stroke-dashoffset="0" font-family="none" font-weight="none" font-size="none" text-anchor="none" style="mix-blend-mode: normal" data-fill-palette-color="tertiary"></path></g></g><g transform="matrix(1,0,0,1,0,65.15845911303803)"><svg viewBox="0 0 395.52 116.88308177392392" height="116.88308177392392" width="395.52"><g><svg viewBox="0 0 395.52 116.88308177392392" height="116.88308177392392" width="395.52"><g><svg viewBox="0 0 395.52 116.88308177392392" height="116.88308177392392" width="395.52"><g><svg viewBox="0 0 395.52 116.88308177392392" height="116.88308177392392" width="395.52"><g id="textblocktransform"><svg viewBox="0 0 395.52 116.88308177392392" height="116.88308177392392" width="395.52" id="textblock"><g><svg viewBox="0 0 395.52 76.19671695216405" height="76.19671695216405" width="395.52"><g transform="matrix(1,0,0,1,0,0)"><svg width="395.52" viewBox="-2.568611122219 -38.35 212.96861112221902 41.84" height="76.19671695216405" data-palette-color="#cb1106"><path d="M13.65 0L13.65 0 7.59 0Q7.37 0 7.35-0.24L7.35-0.24 0.44-34.59Q0.39-34.79 0.63-34.79L0.63-34.79 6.3-34.79Q6.49-34.79 6.54-34.59L6.54-34.59 10.64-11.69 14.65-34.59Q14.7-34.79 14.89-34.79L14.89-34.79 20.48-34.79Q20.75-34.79 20.68-34.59L20.68-34.59 13.89-0.24Q13.87 0 13.65 0ZM29.51 0L29.51 0 23.85 0Q23.61 0 23.61-0.24L23.61-0.24 23.65-34.59Q23.65-34.79 23.85-34.79L23.85-34.79 29.47-34.79Q29.66-34.79 29.66-34.59L29.66-34.59 29.71-0.24Q29.71 0 29.51 0ZM50.46 0L50.46 0 34.3 0Q34.1 0 34.1-0.24L34.1-0.24 34.15-34.59Q34.15-34.79 34.35-34.79L34.35-34.79 50.41-34.79Q50.61-34.79 50.61-34.55L50.61-34.55 50.61-28.96Q50.61-28.76 50.41-28.76L50.41-28.76 40.16-28.76 40.16-20.95 50.41-20.95Q50.61-20.95 50.61-20.75L50.61-20.75 50.65-15.09Q50.65-14.89 50.46-14.89L50.46-14.89 40.16-14.89 40.16-6.15 50.46-6.15Q50.65-6.15 50.65-5.91L50.65-5.91 50.65-0.2Q50.65 0 50.46 0ZM65.76 0L65.76 0 59.71 0Q59.49 0 59.47-0.24L59.47-0.24 53.56-34.59Q53.51-34.79 53.7-34.79L53.7-34.79 59.32-34.79Q59.51-34.79 59.56-34.59L59.56-34.59 62.76-12.01 66.06-34.59Q66.11-34.79 66.35-34.79L66.35-34.79 70.87-34.79Q71.06-34.79 71.11-34.59L71.11-34.59 74.36-12.01 77.6-34.59Q77.65-34.79 77.85-34.79L77.85-34.79 83.42-34.79Q83.66-34.79 83.61-34.59L83.61-34.59 77.65-0.24Q77.63-0.15 77.51-0.07L77.51-0.07 77.41 0 71.35 0Q71.21 0 71.11-0.24L71.11-0.24 68.55-18.19 66.01-0.24Q65.98 0 65.76 0ZM98.21 0L98.21 0 92.15 0Q91.93 0 91.91-0.24L91.91-0.24 85-34.59Q84.95-34.79 85.2-34.79L85.2-34.79 90.86-34.79Q91.05-34.79 91.1-34.59L91.1-34.59 95.2-11.69 99.21-34.59Q99.26-34.79 99.45-34.79L99.45-34.79 105.04-34.79Q105.31-34.79 105.24-34.59L105.24-34.59 98.45-0.24Q98.43 0 98.21 0ZM114.42 0.49L114.42 0.49Q111.76 0.49 109.51-0.88L109.51-0.88Q107.29-2.25 105.93-4.53 104.58-6.81 104.58-9.55L104.58-9.55 104.63-25.39Q104.63-28.17 105.97-30.4L105.97-30.4Q107.29-32.64 109.53-34 111.78-35.35 114.42-35.35L114.42-35.35Q117.15-35.35 119.32-34.01L119.32-34.01Q121.52-32.67 122.85-30.41 124.18-28.15 124.18-25.39L124.18-25.39 124.23-9.55Q124.23-6.81 122.91-4.54L122.91-4.54Q121.57-2.25 119.35-0.88 117.13 0.49 114.42 0.49ZM114.42-5.54L114.42-5.54Q115.93-5.54 117.05-6.77 118.18-8.01 118.18-9.55L118.18-9.55 118.13-25.39Q118.13-27.05 117.08-28.2 116.03-29.35 114.42-29.35L114.42-29.35Q112.88-29.35 111.78-28.22 110.68-27.1 110.68-25.39L110.68-25.39 110.68-9.55Q110.68-7.91 111.78-6.73 112.88-5.54 114.42-5.54ZM137.41 0L137.41 0 131.67 0Q131.5 0 131.5-0.2L131.5-0.2 131.55-14.4 124.86-34.59Q124.81-34.79 125.01-34.79L125.01-34.79 130.58-34.79Q130.82-34.79 130.87-34.59L130.87-34.59 134.56-21.14 138.32-34.59Q138.36-34.79 138.56-34.79L138.56-34.79 144.17-34.79Q144.37-34.79 144.32-34.59L144.32-34.59 137.56-14.6 137.61-0.2Q137.61 0 137.41 0ZM145.34-0.24L145.34-0.24 151.55-34.59Q151.59-34.79 151.79-34.79L151.79-34.79 159.04-34.79Q159.24-34.79 159.28-34.59L159.28-34.59 165.24-0.24Q165.27 0 165.05 0L165.05 0 159.5 0Q159.26 0 159.24-0.24L159.24-0.24 158.7-3.91 151.89-3.91 151.35-0.24Q151.33 0 151.11 0L151.11 0 145.54 0Q145.34 0 145.34-0.24ZM157.7-9.25L155.65-23.29 155.35-25.15 155.13-23.29 152.89-9.25 157.7-9.25ZM177.52 0.49L177.52 0.49Q174.81 0.49 172.64-0.85L172.64-0.85Q170.44-2.2 169.11-4.47 167.78-6.74 167.78-9.55L167.78-9.55 167.78-25.39Q167.78-28.13 169.12-30.37L169.12-30.37Q170.44-32.64 172.66-34 174.88-35.35 177.52-35.35L177.52-35.35Q180.28-35.35 182.5-34.03L182.5-34.03Q184.72-32.69 186.03-30.44 187.33-28.2 187.33-25.39L187.33-25.39 187.33-23.1Q187.33-22.9 187.09-22.9L187.09-22.9 181.47-22.9Q181.28-22.9 181.28-23.1L181.28-23.1 181.28-25Q181.28-26.9 180.2-28.15 179.13-29.39 177.52-29.39L177.52-29.39Q176.08-29.39 174.96-28.2 173.83-27 173.83-25.39L173.83-25.39 173.83-9.55Q173.83-7.91 174.93-6.73 176.03-5.54 177.52-5.54L177.52-5.54Q179.13-5.54 180.2-6.7 181.28-7.86 181.28-9.55L181.28-9.55 181.28-12.01 177.79-12.01Q177.52-12.01 177.52-12.26L177.52-12.26 177.52-17.85Q177.52-18.09 177.79-18.09L177.79-18.09 187.14-18.09Q187.33-18.09 187.33-17.85L187.33-17.85 187.33-9.55Q187.33-6.74 186.02-4.47L186.02-4.47Q184.67-2.2 182.48-0.85 180.28 0.49 177.52 0.49ZM207.2 0L207.2 0 191.04 0Q190.85 0 190.85-0.24L190.85-0.24 190.9-34.59Q190.9-34.79 191.09-34.79L191.09-34.79 207.16-34.79Q207.35-34.79 207.35-34.55L207.35-34.55 207.35-28.96Q207.35-28.76 207.16-28.76L207.16-28.76 196.9-28.76 196.9-20.95 207.16-20.95Q207.35-20.95 207.35-20.75L207.35-20.75 207.4-15.09Q207.4-14.89 207.2-14.89L207.2-14.89 196.9-14.89 196.9-6.15 207.2-6.15Q207.4-6.15 207.4-5.91L207.4-5.91 207.4-0.2Q207.4 0 207.2 0Z" opacity="1" transform="matrix(1,0,0,1,0,0)" fill="#cb1106" class="wordmark-text-0" data-fill-palette-color="primary" id="text-0"></path></svg></g></svg></g><g transform="matrix(1,0,0,1,2.5,85.95436211931285)"><svg viewBox="0 0 390.52 30.928719654611083" height="30.928719654611083" width="390.52"><g transform="matrix(1,0,0,1,0,0)"><svg width="390.52" viewBox="-0.75 -39.25 707.37 56.95" height="30.928719654611083" data-palette-color="#cb1106"><path d="M13.75 0.55L13.75 0.55Q10.55 0.55 7.93-1 5.3-2.55 3.78-5.18 2.25-7.8 2.25-11L2.25-11Q2.25-14.3 3.78-16.95 5.3-19.6 7.93-21.15 10.55-22.7 13.75-22.7L13.75-22.7Q17-22.7 19.6-21.15 22.2-19.6 23.73-16.95 25.25-14.3 25.25-11L25.25-11Q25.25-7.8 23.73-5.18 22.2-2.55 19.6-1 17 0.55 13.75 0.55ZM13.75-0.7L13.75-0.7Q16.45-0.7 18.1-2.08 19.75-3.45 20.5-5.78 21.25-8.1 21.25-11L21.25-11Q21.25-14 20.5-16.35 19.75-18.7 18.1-20.08 16.45-21.45 13.75-21.45L13.75-21.45Q11.05-21.45 9.4-20.08 7.75-18.7 7-16.35 6.25-14 6.25-11L6.25-11Q6.25-8.1 7-5.78 7.75-3.45 9.4-2.08 11.05-0.7 13.75-0.7ZM38.2 0.55L38.2 0.55Q35.75 0.55 34.22-0.93 32.7-2.4 32.7-5.75L32.7-5.75 32.7-20.55 29-20.55 29-21.8 30.35-21.9Q32.4-22.05 33.47-23.58 34.55-25.1 34.9-27.85L34.9-27.85 36.2-27.85 36.2-21.8 42.6-21.8 42.6-20.55 36.2-20.55 36.2-5.55Q36.2-1.15 39.3-1.15L39.3-1.15Q40.6-1.15 41.4-2.02 42.2-2.9 42.85-4.2L42.85-4.2 43.95-3.65Q43.65-2.9 43.22-2.27 42.8-1.65 42.4-1.2L42.4-1.2Q41.55-0.25 40.47 0.15 39.4 0.55 38.2 0.55ZM51.34 0L45.2 0.15 45.2-1 45.99-1.1Q47.45-1.3 48.22-1.58 48.99-1.85 49.3-2.83 49.59-3.8 49.59-6.05L49.59-6.05 49.59-30.45Q49.59-33.05 48.52-33.77 47.45-34.5 45.55-34.5L45.55-34.5 45.2-34.5 45.2-35.65Q47.24-35.65 49.15-35.77 51.05-35.9 53.09-36.25L53.09-36.25 53.09-18.35Q54.25-20.05 56.34-21.38 58.45-22.7 61.25-22.7L61.25-22.7Q64.65-22.7 66.62-20.98 68.59-19.25 68.59-16.05L68.59-16.05 68.59-6.05Q68.59-3.8 68.9-2.83 69.19-1.85 69.97-1.58 70.75-1.3 72.19-1.1L72.19-1.1 73-1 73 0.15 66.84 0 60.7 0.15 60.7-1 61.5-1.1Q62.95-1.3 63.72-1.58 64.5-1.85 64.8-2.83 65.09-3.8 65.09-6.05L65.09-6.05 65.09-16.05Q65.09-18.55 63.8-19.88 62.5-21.2 60.15-21.2L60.15-21.2Q58.34-21.2 56.9-20.38 55.45-19.55 54.5-18.35 53.55-17.15 53.09-16.05L53.09-16.05 53.09-6.05Q53.09-3.8 53.4-2.83 53.7-1.85 54.47-1.58 55.25-1.3 56.7-1.1L56.7-1.1 57.5-1 57.5 0.15 51.34 0ZM86.74 0.55L86.74 0.55Q83.44 0.55 80.99-0.88 78.54-2.3 77.17-4.83 75.79-7.35 75.79-10.6L75.79-10.6Q75.79-14.1 77.29-16.82 78.79-19.55 81.32-21.13 83.84-22.7 86.89-22.7L86.89-22.7Q90.74-22.7 92.92-20.25 95.09-17.8 95.09-13.8L95.09-13.8Q95.09-13.2 95.04-12.8 94.99-12.4 94.94-12.25L94.94-12.25 79.84-12.25Q79.79-11.55 79.79-10.85L79.79-10.85Q79.79-8.2 80.64-5.93 81.49-3.65 83.22-2.3 84.94-0.95 87.44-0.95L87.44-0.95Q89.79-0.95 91.62-2.27 93.44-3.6 94.44-6.2L94.44-6.2 95.64-5.75Q93.54 0.55 86.74 0.55ZM86.89-21.45L86.89-21.45Q83.79-21.45 82.07-19.25 80.34-17.05 79.94-13.4L79.94-13.4 86.29-13.4Q88.54-13.4 89.72-13.93 90.89-14.45 91.32-15.23 91.74-16 91.74-16.75L91.74-16.75Q91.74-18.95 90.24-20.2 88.74-21.45 86.89-21.45ZM104.94 0L98.79 0.15 98.79-1 99.59-1.1Q101.04-1.3 101.82-1.58 102.59-1.85 102.89-2.83 103.19-3.8 103.19-6.05L103.19-6.05 103.19-16.45Q103.19-18.4 102.67-19.3 102.14-20.2 101.14-20.43 100.14-20.65 98.79-20.65L98.79-20.65 98.79-21.8Q100.84-21.8 102.74-21.95 104.64-22.1 106.69-22.4L106.69-22.4 106.14-16.65 106.34-16.65Q107.44-20 109.04-21.35 110.64-22.7 112.49-22.7L112.49-22.7Q114.59-22.7 115.29-21.68 115.99-20.65 115.99-19.7L115.99-19.7Q115.99-18.6 115.34-17.9 114.69-17.2 113.59-17.2L113.59-17.2Q112.54-17.2 111.99-17.7 111.44-18.2 111.44-18.85L111.44-18.85Q111.44-19.35 111.57-19.8 111.69-20.25 111.69-20.5L111.69-20.5Q111.69-21 110.99-21L110.99-21Q110.29-21 109.52-20.35 108.74-19.7 108.19-18.55L108.19-18.55Q107.74-17.6 107.34-16.45 106.94-15.3 106.69-13.95L106.69-13.95 106.69-6.05Q106.69-3.8 106.99-2.83 107.29-1.85 108.07-1.58 108.84-1.3 110.29-1.1L110.29-1.1 111.09-1 111.09 0.15 104.94 0ZM141.59 0L139.69 0 133.53-16.95Q132.94-18.6 132.13-19.55 131.34-20.5 130.09-20.6L130.09-20.6 129.53-20.65 129.53-21.8 134.84-21.65 139.74-21.8 139.74-20.65 139.24-20.6Q136.74-20.4 136.74-18.7L136.74-18.7Q136.74-18.4 136.78-18.05 136.84-17.7 136.99-17.3L136.99-17.3 141.84-3.85 147.38-16.4Q147.63-17 147.81-17.53 147.99-18.05 147.99-18.45L147.99-18.45Q147.99-20.5 145.94-20.6L145.94-20.6 144.38-20.65 144.38-21.8 146.13-21.8Q147.99-21.8 148.84-20.3L148.84-20.3Q149.19-21.15 150.21-21.48 151.24-21.8 152.09-21.8L152.09-21.8 154.38-21.8 154.38-20.65 153.63-20.6Q152.74-20.55 152.34-20.08 151.94-19.6 151.94-18.9L151.94-18.9Q151.94-18.25 152.34-17.2L152.34-17.2 157.53-3.9 162.74-17.1Q162.84-17.45 163.01-17.95 163.19-18.45 163.19-18.75L163.19-18.75Q163.19-20.25 160.74-20.55L160.74-20.55 159.94-20.65 159.94-21.8 164.63-21.65 168.59-21.8 168.59-20.65 167.78-20.55Q166.03-20.35 165.31-19.3 164.59-18.25 164.03-16.95L164.03-16.95 157.34 0 155.44 0 148.94-16.75 141.59 0ZM180.83 0.55L180.83 0.55Q177.63 0.55 175.01-1 172.38-2.55 170.86-5.18 169.33-7.8 169.33-11L169.33-11Q169.33-14.3 170.86-16.95 172.38-19.6 175.01-21.15 177.63-22.7 180.83-22.7L180.83-22.7Q184.08-22.7 186.68-21.15 189.28-19.6 190.81-16.95 192.33-14.3 192.33-11L192.33-11Q192.33-7.8 190.81-5.18 189.28-2.55 186.68-1 184.08 0.55 180.83 0.55ZM180.83-0.7L180.83-0.7Q183.53-0.7 185.18-2.08 186.83-3.45 187.58-5.78 188.33-8.1 188.33-11L188.33-11Q188.33-14 187.58-16.35 186.83-18.7 185.18-20.08 183.53-21.45 180.83-21.45L180.83-21.45Q178.13-21.45 176.48-20.08 174.83-18.7 174.08-16.35 173.33-14 173.33-11L173.33-11Q173.33-8.1 174.08-5.78 174.83-3.45 176.48-2.08 178.13-0.7 180.83-0.7ZM202.13 0L195.98 0.15 195.98-1 196.78-1.1Q198.23-1.3 199.01-1.58 199.78-1.85 200.08-2.83 200.38-3.8 200.38-6.05L200.38-6.05 200.38-16.45Q200.38-18.4 199.86-19.3 199.33-20.2 198.33-20.43 197.33-20.65 195.98-20.65L195.98-20.65 195.98-21.8Q198.03-21.8 199.93-21.95 201.83-22.1 203.88-22.4L203.88-22.4 203.33-16.65 203.53-16.65Q204.63-20 206.23-21.35 207.83-22.7 209.68-22.7L209.68-22.7Q211.78-22.7 212.48-21.68 213.18-20.65 213.18-19.7L213.18-19.7Q213.18-18.6 212.53-17.9 211.88-17.2 210.78-17.2L210.78-17.2Q209.73-17.2 209.18-17.7 208.63-18.2 208.63-18.85L208.63-18.85Q208.63-19.35 208.76-19.8 208.88-20.25 208.88-20.5L208.88-20.5Q208.88-21 208.18-21L208.18-21Q207.48-21 206.71-20.35 205.93-19.7 205.38-18.55L205.38-18.55Q204.93-17.6 204.53-16.45 204.13-15.3 203.88-13.95L203.88-13.95 203.88-6.05Q203.88-3.8 204.18-2.83 204.48-1.85 205.26-1.58 206.03-1.3 207.48-1.1L207.48-1.1 208.28-1 208.28 0.15 202.13 0ZM221.08 0L214.93 0.15 214.93-1 215.73-1.1Q217.18-1.3 217.95-1.58 218.73-1.85 219.03-2.83 219.33-3.8 219.33-6.05L219.33-6.05 219.33-30.45Q219.33-33.05 218.25-33.77 217.18-34.5 215.28-34.5L215.28-34.5 214.93-34.5 214.93-35.65Q216.98-35.65 218.88-35.77 220.78-35.9 222.83-36.25L222.83-36.25 222.83-6.05Q222.83-3.8 223.13-2.83 223.43-1.85 224.2-1.58 224.98-1.3 226.43-1.1L226.43-1.1 227.23-1 227.23 0.15 221.08 0ZM240.38 0.55L240.38 0.55Q237.53 0.55 235.23-1 232.93-2.55 231.58-5.23 230.23-7.9 230.23-11.15L230.23-11.15Q230.23-14.4 231.58-17 232.93-19.6 235.28-21.15 237.63-22.7 240.58-22.7L240.58-22.7Q242.68-22.7 244.43-21.83 246.18-20.95 247.33-19.85L247.33-19.85 247.33-30.45Q247.33-33.05 246.25-33.77 245.18-34.5 243.28-34.5L243.28-34.5 242.93-34.5 242.93-35.65Q244.98-35.65 246.88-35.77 248.78-35.9 250.83-36.25L250.83-36.25 250.83-5.45Q250.83-2.65 251.9-1.9 252.98-1.15 254.98-1.15L254.98-1.15 254.98 0 252.93 0Q251.83 0 250.78 0.08 249.73 0.15 248.43 0.4L248.43 0.4 247.78-3.1Q246.43-1.5 244.55-0.48 242.68 0.55 240.38 0.55ZM234.23-11.15L234.23-11.15Q234.23-8.25 234.95-5.95 235.68-3.65 237.15-2.3 238.63-0.95 240.88-0.95L240.88-0.95Q243.03-0.95 244.6-1.93 246.18-2.9 247.33-4.3L247.33-4.3 247.33-17.8Q246.48-19.1 244.78-20.15 243.08-21.2 241.03-21.2L241.03-21.2Q238.73-21.2 237.23-19.88 235.73-18.55 234.98-16.28 234.23-14 234.23-11.15ZM265.82 0.55L265.82 0.55Q263.92 0.55 262.6 0.13 261.27-0.3 260.52-0.65L260.52-0.65Q259.72-1.05 259.52-1.05L259.52-1.05Q259.32-1.05 259.2-0.88 259.07-0.7 258.92 0L258.92 0 257.77 0 257.97-3.3 258.12-7.55 259.22-7.55 259.27-6.7Q259.37-5.3 260.2-3.9 261.02-2.5 262.47-1.55 263.92-0.6 265.82-0.6L265.82-0.6Q267.87-0.6 269.12-1.65 270.37-2.7 270.37-4.55L270.37-4.55Q270.37-6.15 269.1-7.25 267.82-8.35 265.57-9.2L265.57-9.2 263.77-9.9Q261.17-10.9 259.85-12.4 258.52-13.9 258.52-16.25L258.52-16.25Q258.52-18.25 259.45-19.68 260.37-21.1 261.9-21.9 263.42-22.7 265.17-22.7L265.17-22.7Q266.42-22.7 267.3-22.4 268.17-22.1 268.77-21.8L268.77-21.8Q269.27-21.55 269.62-21.55L269.62-21.55Q270.12-21.55 270.42-22.6L270.42-22.6 271.52-22.55 271.32-19.3 271.32-15.8 270.17-15.8Q269.82-18.15 268.57-19.88 267.32-21.6 264.97-21.6L264.97-21.6Q263.32-21.6 262.2-20.55 261.07-19.5 261.07-17.9L261.07-17.9Q261.07-16.35 262.25-15.33 263.42-14.3 265.47-13.5L265.47-13.5 267.42-12.75Q270.47-11.6 271.65-9.98 272.82-8.35 272.82-6.1L272.82-6.1Q272.82-3.45 271.02-1.45 269.22 0.55 265.82 0.55ZM296.12 0.55L296.12 0.55Q293.72 0.55 292.14-0.68 290.57-1.9 290.57-4.1L290.57-4.1Q290.57-6.3 292.52-8.03 294.47-9.75 297.07-11.15L297.07-11.15Q299.02-12.25 300.97-13.05 302.92-13.85 304.32-14.4L304.32-14.4 304.32-16Q304.32-18.75 303.29-20.1 302.27-21.45 299.42-21.45L299.42-21.45Q298.07-21.45 296.77-21.1 295.47-20.75 295.47-19.8L295.47-19.8Q295.47-19.6 295.54-19.35 295.62-19.1 295.67-18.85L295.67-18.85Q295.92-18.2 295.92-17.5L295.92-17.5Q295.92-16.55 295.24-16.03 294.57-15.5 293.62-15.5L293.62-15.5Q292.72-15.5 292.12-16.18 291.52-16.85 291.52-17.8L291.52-17.8Q291.52-19.6 292.89-20.68 294.27-21.75 296.27-22.23 298.27-22.7 300.12-22.7L300.12-22.7Q304.12-22.7 305.97-20.85 307.82-19 307.82-14.8L307.82-14.8 307.82-5.8Q307.82-3.6 308.14-2.4 308.47-1.2 309.62-1.2L309.62-1.2Q310.37-1.2 310.92-1.75 311.47-2.3 311.67-2.95L311.67-2.95 312.57-2.6Q312.17-1.15 311.14-0.3 310.12 0.55 308.32 0.55L308.32 0.55Q306.12 0.55 305.29-0.73 304.47-2 304.37-4.1L304.37-4.1Q302.97-1.85 300.82-0.65 298.67 0.55 296.12 0.55ZM294.47-4.35L294.47-4.35Q294.47-2.95 295.29-2.13 296.12-1.3 297.72-1.3L297.72-1.3Q299.17-1.3 300.49-2 301.82-2.7 302.82-3.78 303.82-4.85 304.32-6.1L304.32-6.1 304.32-13.4Q302.67-12.7 300.94-11.78 299.22-10.85 297.74-9.7 296.27-8.55 295.37-7.23 294.47-5.9 294.47-4.35ZM320.12 0L313.96 0.15 313.96-1 314.76-1.1Q316.21-1.3 316.99-1.58 317.76-1.85 318.06-2.83 318.37-3.8 318.37-6.05L318.37-6.05 318.37-16.45Q318.37-18.4 317.84-19.3 317.31-20.2 316.31-20.43 315.31-20.65 313.96-20.65L313.96-20.65 313.96-21.8Q316.01-21.8 317.92-21.95 319.81-22.1 321.87-22.4L321.87-22.4 321.31-16.65 321.51-16.65Q322.62-20 324.21-21.35 325.81-22.7 327.67-22.7L327.67-22.7Q329.76-22.7 330.46-21.68 331.17-20.65 331.17-19.7L331.17-19.7Q331.17-18.6 330.51-17.9 329.87-17.2 328.76-17.2L328.76-17.2Q327.71-17.2 327.17-17.7 326.62-18.2 326.62-18.85L326.62-18.85Q326.62-19.35 326.74-19.8 326.87-20.25 326.87-20.5L326.87-20.5Q326.87-21 326.17-21L326.17-21Q325.46-21 324.69-20.35 323.92-19.7 323.37-18.55L323.37-18.55Q322.92-17.6 322.51-16.45 322.12-15.3 321.87-13.95L321.87-13.95 321.87-6.05Q321.87-3.8 322.17-2.83 322.46-1.85 323.24-1.58 324.01-1.3 325.46-1.1L325.46-1.1 326.26-1 326.26 0.15 320.12 0ZM344.86 0.55L344.86 0.55Q341.56 0.55 339.11-0.88 336.66-2.3 335.29-4.83 333.91-7.35 333.91-10.6L333.91-10.6Q333.91-14.1 335.41-16.82 336.91-19.55 339.44-21.13 341.96-22.7 345.01-22.7L345.01-22.7Q348.86-22.7 351.04-20.25 353.21-17.8 353.21-13.8L353.21-13.8Q353.21-13.2 353.16-12.8 353.11-12.4 353.06-12.25L353.06-12.25 337.96-12.25Q337.91-11.55 337.91-10.85L337.91-10.85Q337.91-8.2 338.76-5.93 339.61-3.65 341.34-2.3 343.06-0.95 345.56-0.95L345.56-0.95Q347.91-0.95 349.74-2.27 351.56-3.6 352.56-6.2L352.56-6.2 353.76-5.75Q351.66 0.55 344.86 0.55ZM345.01-21.45L345.01-21.45Q341.91-21.45 340.19-19.25 338.46-17.05 338.06-13.4L338.06-13.4 344.41-13.4Q346.66-13.4 347.84-13.93 349.01-14.45 349.44-15.23 349.86-16 349.86-16.75L349.86-16.75Q349.86-18.95 348.36-20.2 346.86-21.45 345.01-21.45ZM380.11 0L378.21 0 372.06-16.95Q371.46-18.6 370.66-19.55 369.86-20.5 368.61-20.6L368.61-20.6 368.06-20.65 368.06-21.8 373.36-21.65 378.26-21.8 378.26-20.65 377.76-20.6Q375.26-20.4 375.26-18.7L375.26-18.7Q375.26-18.4 375.31-18.05 375.36-17.7 375.51-17.3L375.51-17.3 380.36-3.85 385.91-16.4Q386.16-17 386.33-17.53 386.51-18.05 386.51-18.45L386.51-18.45Q386.51-20.5 384.46-20.6L384.46-20.6 382.91-20.65 382.91-21.8 384.66-21.8Q386.51-21.8 387.36-20.3L387.36-20.3Q387.71-21.15 388.73-21.48 389.76-21.8 390.61-21.8L390.61-21.8 392.91-21.8 392.91-20.65 392.16-20.6Q391.26-20.55 390.86-20.08 390.46-19.6 390.46-18.9L390.46-18.9Q390.46-18.25 390.86-17.2L390.86-17.2 396.06-3.9 401.26-17.1Q401.36-17.45 401.53-17.95 401.71-18.45 401.71-18.75L401.71-18.75Q401.71-20.25 399.26-20.55L399.26-20.55 398.46-20.65 398.46-21.8 403.16-21.65 407.11-21.8 407.11-20.65 406.31-20.55Q404.56-20.35 403.83-19.3 403.11-18.25 402.56-16.95L402.56-16.95 395.86 0 393.96 0 387.46-16.75 380.11 0ZM414.36 0.55L414.36 0.55Q411.96 0.55 410.38-0.68 408.81-1.9 408.81-4.1L408.81-4.1Q408.81-6.3 410.76-8.03 412.71-9.75 415.31-11.15L415.31-11.15Q417.26-12.25 419.21-13.05 421.16-13.85 422.56-14.4L422.56-14.4 422.56-16Q422.56-18.75 421.53-20.1 420.51-21.45 417.66-21.45L417.66-21.45Q416.31-21.45 415.01-21.1 413.71-20.75 413.71-19.8L413.71-19.8Q413.71-19.6 413.78-19.35 413.86-19.1 413.91-18.85L413.91-18.85Q414.16-18.2 414.16-17.5L414.16-17.5Q414.16-16.55 413.48-16.03 412.81-15.5 411.86-15.5L411.86-15.5Q410.96-15.5 410.36-16.18 409.76-16.85 409.76-17.8L409.76-17.8Q409.76-19.6 411.13-20.68 412.51-21.75 414.51-22.23 416.51-22.7 418.36-22.7L418.36-22.7Q422.36-22.7 424.21-20.85 426.06-19 426.06-14.8L426.06-14.8 426.06-5.8Q426.06-3.6 426.38-2.4 426.71-1.2 427.86-1.2L427.86-1.2Q428.61-1.2 429.16-1.75 429.71-2.3 429.91-2.95L429.91-2.95 430.81-2.6Q430.41-1.15 429.38-0.3 428.36 0.55 426.56 0.55L426.56 0.55Q424.36 0.55 423.53-0.73 422.71-2 422.61-4.1L422.61-4.1Q421.21-1.85 419.06-0.65 416.91 0.55 414.36 0.55ZM412.71-4.35L412.71-4.35Q412.71-2.95 413.53-2.13 414.36-1.3 415.96-1.3L415.96-1.3Q417.41-1.3 418.73-2 420.06-2.7 421.06-3.78 422.06-4.85 422.56-6.1L422.56-6.1 422.56-13.4Q420.91-12.7 419.18-11.78 417.46-10.85 415.98-9.7 414.51-8.55 413.61-7.23 412.71-5.9 412.71-4.35ZM438.35 0L432.2 0.15 432.2-1 433-1.1Q434.45-1.3 435.23-1.58 436-1.85 436.3-2.83 436.6-3.8 436.6-6.05L436.6-6.05 436.6-16.6Q436.6-19.2 435.53-19.93 434.45-20.65 432.55-20.65L432.55-20.65 432.2-20.65 432.2-21.8Q434.25-21.8 436.15-21.93 438.05-22.05 440.1-22.4L440.1-22.4 440.1-6.05Q440.1-3.8 440.4-2.83 440.7-1.85 441.48-1.58 442.25-1.3 443.7-1.1L443.7-1.1 444.5-1 444.5 0.15 438.35 0ZM437.75-28.25L437.75-28.25Q436.45-28.25 435.7-29.15 434.95-30.05 434.95-31.3L434.95-31.3Q434.95-32.6 435.7-33.48 436.45-34.35 437.75-34.35L437.75-34.35Q439.2-34.35 439.88-33.48 440.55-32.6 440.55-31.3L440.55-31.3Q440.55-30.05 439.88-29.15 439.2-28.25 437.75-28.25ZM455.7 0.55L455.7 0.55Q453.25 0.55 451.73-0.93 450.2-2.4 450.2-5.75L450.2-5.75 450.2-20.55 446.5-20.55 446.5-21.8 447.85-21.9Q449.9-22.05 450.98-23.58 452.05-25.1 452.4-27.85L452.4-27.85 453.7-27.85 453.7-21.8 460.1-21.8 460.1-20.55 453.7-20.55 453.7-5.55Q453.7-1.15 456.8-1.15L456.8-1.15Q458.1-1.15 458.9-2.02 459.7-2.9 460.35-4.2L460.35-4.2 461.45-3.65Q461.15-2.9 460.73-2.27 460.3-1.65 459.9-1.2L459.9-1.2Q459.05-0.25 457.98 0.15 456.9 0.55 455.7 0.55ZM469.5 0L463.35 0.15 463.35-1 464.15-1.1Q465.6-1.3 466.37-1.58 467.15-1.85 467.45-2.83 467.75-3.8 467.75-6.05L467.75-6.05 467.75-16.6Q467.75-19.2 466.67-19.93 465.6-20.65 463.7-20.65L463.7-20.65 463.35-20.65 463.35-21.8Q465.4-21.8 467.3-21.93 469.2-22.05 471.25-22.4L471.25-22.4 471.25-6.05Q471.25-3.8 471.55-2.83 471.85-1.85 472.62-1.58 473.4-1.3 474.85-1.1L474.85-1.1 475.65-1 475.65 0.15 469.5 0ZM468.9-28.25L468.9-28.25Q467.6-28.25 466.85-29.15 466.1-30.05 466.1-31.3L466.1-31.3Q466.1-32.6 466.85-33.48 467.6-34.35 468.9-34.35L468.9-34.35Q470.35-34.35 471.02-33.48 471.7-32.6 471.7-31.3L471.7-31.3Q471.7-30.05 471.02-29.15 470.35-28.25 468.9-28.25ZM483.7 0L477.55 0.15 477.55-1 478.35-1.1Q479.8-1.3 480.57-1.58 481.35-1.85 481.65-2.83 481.95-3.8 481.95-6.05L481.95-6.05 481.95-16.6Q481.95-19.2 480.87-19.93 479.8-20.65 477.9-20.65L477.9-20.65 477.55-20.65 477.55-21.8Q479.6-21.8 481.5-21.93 483.4-22.05 485.45-22.4L485.45-22.4 485.45-18.35Q486.6-20.05 488.7-21.38 490.8-22.7 493.6-22.7L493.6-22.7Q497-22.7 498.97-20.98 500.95-19.25 500.95-16.05L500.95-16.05 500.95-6.05Q500.95-3.8 501.25-2.83 501.55-1.85 502.32-1.58 503.1-1.3 504.55-1.1L504.55-1.1 505.35-1 505.35 0.15 499.2 0 493.05 0.15 493.05-1 493.85-1.1Q495.3-1.3 496.07-1.58 496.85-1.85 497.15-2.83 497.45-3.8 497.45-6.05L497.45-6.05 497.45-16.05Q497.45-18.55 496.15-19.88 494.85-21.2 492.5-21.2L492.5-21.2Q490.7-21.2 489.25-20.38 487.8-19.55 486.85-18.35 485.9-17.15 485.45-16.05L485.45-16.05 485.45-6.05Q485.45-3.8 485.75-2.83 486.05-1.85 486.82-1.58 487.6-1.3 489.05-1.1L489.05-1.1 489.85-1 489.85 0.15 483.7 0ZM518.49-6.6L518.49-6.6Q516.79-6.6 515.19-7.1L515.19-7.1Q513.84-6.8 512.67-6.08 511.49-5.35 511.49-4.15L511.49-4.15Q511.49-3.1 512.24-2.58 512.99-2.05 514.19-1.88 515.39-1.7 516.79-1.6L516.79-1.6 518.99-1.5Q522.14-1.35 524.69-0.83 527.24-0.3 528.77 1.2 530.29 2.7 530.29 5.8L530.29 5.8Q530.29 8.65 528.62 10.63 526.94 12.6 524.27 13.65 521.59 14.7 518.49 14.7L518.49 14.7Q515.39 14.7 512.62 13.85 509.84 13 508.12 11.25 506.39 9.5 506.39 6.75L506.39 6.75Q506.39 5.15 507.17 4.1 507.94 3.05 509.19 3.05L509.19 3.05Q510.04 3.05 510.64 3.53 511.24 4 511.24 4.95L511.24 4.95Q511.24 5.8 510.94 6.33 510.64 6.85 510.32 7.4 509.99 7.95 509.99 8.8L509.99 8.8Q509.99 10.5 511.17 11.53 512.34 12.55 514.27 13 516.19 13.45 518.49 13.45L518.49 13.45Q521.04 13.45 523.19 12.7 525.34 11.95 526.67 10.48 527.99 9 527.99 6.85L527.99 6.85Q527.99 4.6 526.22 3.58 524.44 2.55 520.74 2.35L520.74 2.35 515.64 2.1Q514.14 2 512.47 1.7 510.79 1.4 509.64 0.48 508.49-0.45 508.49-2.3L508.49-2.3Q508.49-4.25 510.12-5.7 511.74-7.15 513.74-7.7L513.74-7.7Q511.74-8.75 510.49-10.55 509.24-12.35 509.24-14.65L509.24-14.65Q509.24-16.95 510.47-18.75 511.69-20.55 513.79-21.63 515.89-22.7 518.49-22.7L518.49-22.7Q521.49-22.7 523.84-21.25L523.84-21.25Q524.89-22.7 526.39-23.33 527.89-23.95 529.39-23.95L529.39-23.95Q530.94-23.95 532.07-23.18 533.19-22.4 533.19-21.1L533.19-21.1Q533.19-20.05 532.52-19.48 531.84-18.9 531.04-18.9L531.04-18.9Q529.19-18.9 528.79-21L528.79-21Q528.69-21.6 528.37-22 528.04-22.4 527.39-22.4L527.39-22.4Q526.59-22.4 525.92-21.83 525.24-21.25 524.79-20.6L524.79-20.6Q526.14-19.5 526.94-17.95 527.74-16.4 527.74-14.65L527.74-14.65Q527.74-12.4 526.52-10.58 525.29-8.75 523.19-7.68 521.09-6.6 518.49-6.6ZM518.49-7.85L518.49-7.85Q521.44-7.85 522.67-9.8 523.89-11.75 523.89-14.65L523.89-14.65Q523.89-17.55 522.67-19.5 521.44-21.45 518.49-21.45L518.49-21.45Q515.59-21.45 514.34-19.5 513.09-17.55 513.09-14.65L513.09-14.65Q513.09-11.75 514.34-9.8 515.59-7.85 518.49-7.85ZM554.19 0L548.04 0.15 548.04-1 548.84-1.1Q550.29-1.3 551.06-1.58 551.84-1.85 552.14-2.83 552.44-3.8 552.44-6.05L552.44-6.05 552.44-20.55 548.14-20.55 548.14-21.8 552.44-21.8 552.44-27.5Q552.44-32.1 554.46-34.15 556.49-36.2 560.44-36.2L560.44-36.2Q562.99-36.2 564.69-35.18 566.39-34.15 566.39-32.15L566.39-32.15Q566.39-30.85 565.66-30.18 564.94-29.5 563.94-29.5L563.94-29.5Q562.99-29.5 562.36-30.15 561.74-30.8 561.74-31.6L561.74-31.6Q561.74-32.1 561.84-32.45 561.94-32.8 562.04-33.1L562.04-33.1Q562.19-33.5 562.19-33.75L562.19-33.75Q562.19-34.4 561.64-34.68 561.09-34.95 560.44-34.95L560.44-34.95Q558.54-34.95 557.56-33.95 556.59-32.95 556.26-31.25 555.94-29.55 555.94-27.5L555.94-27.5 555.94-21.8 561.09-21.8 561.09-20.55 555.94-20.55 555.94-6.05Q555.94-3.8 556.24-2.83 556.54-1.85 557.31-1.58 558.09-1.3 559.54-1.1L559.54-1.1 560.34-1 560.34 0.15 554.19 0ZM576.49 0.55L576.49 0.55Q573.28 0.55 570.66-1 568.03-2.55 566.51-5.18 564.99-7.8 564.99-11L564.99-11Q564.99-14.3 566.51-16.95 568.03-19.6 570.66-21.15 573.28-22.7 576.49-22.7L576.49-22.7Q579.74-22.7 582.34-21.15 584.94-19.6 586.46-16.95 587.99-14.3 587.99-11L587.99-11Q587.99-7.8 586.46-5.18 584.94-2.55 582.34-1 579.74 0.55 576.49 0.55ZM576.49-0.7L576.49-0.7Q579.19-0.7 580.84-2.08 582.49-3.45 583.24-5.78 583.99-8.1 583.99-11L583.99-11Q583.99-14 583.24-16.35 582.49-18.7 580.84-20.08 579.19-21.45 576.49-21.45L576.49-21.45Q573.78-21.45 572.13-20.08 570.49-18.7 569.74-16.35 568.99-14 568.99-11L568.99-11Q568.99-8.1 569.74-5.78 570.49-3.45 572.13-2.08 573.78-0.7 576.49-0.7ZM597.78 0L591.63 0.15 591.63-1 592.43-1.1Q593.88-1.3 594.66-1.58 595.43-1.85 595.73-2.83 596.03-3.8 596.03-6.05L596.03-6.05 596.03-16.45Q596.03-18.4 595.51-19.3 594.98-20.2 593.98-20.43 592.98-20.65 591.63-20.65L591.63-20.65 591.63-21.8Q593.68-21.8 595.58-21.95 597.48-22.1 599.53-22.4L599.53-22.4 598.98-16.65 599.18-16.65Q600.28-20 601.88-21.35 603.48-22.7 605.33-22.7L605.33-22.7Q607.43-22.7 608.13-21.68 608.83-20.65 608.83-19.7L608.83-19.7Q608.83-18.6 608.18-17.9 607.53-17.2 606.43-17.2L606.43-17.2Q605.38-17.2 604.83-17.7 604.28-18.2 604.28-18.85L604.28-18.85Q604.28-19.35 604.41-19.8 604.53-20.25 604.53-20.5L604.53-20.5Q604.53-21 603.83-21L603.83-21Q603.13-21 602.36-20.35 601.58-19.7 601.03-18.55L601.03-18.55Q600.58-17.6 600.18-16.45 599.78-15.3 599.53-13.95L599.53-13.95 599.53-6.05Q599.53-3.8 599.83-2.83 600.13-1.85 600.91-1.58 601.68-1.3 603.13-1.1L603.13-1.1 603.93-1 603.93 0.15 597.78 0ZM624.93 14.7L624.93 14.7Q623.23 14.7 622.38 13.88 621.53 13.05 621.53 12.05L621.53 12.05Q621.53 11.05 622.25 10.38 622.98 9.7 624.08 9.7L624.08 9.7Q624.78 9.7 625.18 9.93 625.58 10.15 625.93 10.4L625.93 10.4Q626.28 10.65 626.73 10.93 627.18 11.2 627.78 11.2L627.78 11.2Q628.68 11.2 629.65 10.5 630.63 9.8 631.68 7.6L631.68 7.6 634.98 0.5 626.68-17.7Q626.18-18.85 625.58-19.6 624.98-20.35 623.73-20.5L623.73-20.5 622.58-20.65 622.58-21.8 627.78-21.65 632.83-21.8 632.83-20.65 632.13-20.55Q630.03-20.25 630.03-19L630.03-19Q630.03-18.4 630.58-17.2L630.58-17.2 636.83-3.5 643.08-16.95Q643.63-18.2 643.63-18.9L643.63-18.9Q643.63-20.25 641.18-20.55L641.18-20.55 640.38-20.65 640.38-21.8 645.18-21.65 649.18-21.8 649.18-20.65 648.43-20.55Q646.58-20.3 645.75-19.2 644.93-18.1 644.23-16.5L644.23-16.5 632.93 8.15Q632.13 9.85 631.05 11.35 629.98 12.85 628.5 13.78 627.03 14.7 624.93 14.7ZM661.82 0.55L661.82 0.55Q658.62 0.55 656-1 653.37-2.55 651.85-5.18 650.32-7.8 650.32-11L650.32-11Q650.32-14.3 651.85-16.95 653.37-19.6 656-21.15 658.62-22.7 661.82-22.7L661.82-22.7Q665.07-22.7 667.67-21.15 670.27-19.6 671.8-16.95 673.32-14.3 673.32-11L673.32-11Q673.32-7.8 671.8-5.18 670.27-2.55 667.67-1 665.07 0.55 661.82 0.55ZM661.82-0.7L661.82-0.7Q664.52-0.7 666.17-2.08 667.82-3.45 668.57-5.78 669.32-8.1 669.32-11L669.32-11Q669.32-14 668.57-16.35 667.82-18.7 666.17-20.08 664.52-21.45 661.82-21.45L661.82-21.45Q659.12-21.45 657.47-20.08 655.82-18.7 655.07-16.35 654.32-14 654.32-11L654.32-11Q654.32-8.1 655.07-5.78 655.82-3.45 657.47-2.08 659.12-0.7 661.82-0.7ZM687.47 0.55L687.47 0.55Q684.22 0.55 682.35-1.07 680.47-2.7 680.47-5.9L680.47-5.9 680.47-15.6Q680.47-17.85 680.17-18.82 679.87-19.8 679.1-20.1 678.32-20.4 676.87-20.55L676.87-20.55 676.07-20.65 676.07-21.8 682.22-21.65 683.97-21.7 683.97-6.1Q683.97-3.65 685.22-2.35 686.47-1.05 688.62-1.05L688.62-1.05Q690.47-1.05 691.9-1.88 693.32-2.7 694.35-4 695.37-5.3 695.97-6.65L695.97-6.65 695.97-15.6Q695.97-17.85 695.67-18.82 695.37-19.8 694.6-20.1 693.82-20.4 692.37-20.55L692.37-20.55 691.57-20.65 691.57-21.8 697.72-21.65 699.47-21.7 699.47-5.55Q699.47-3.65 699.95-2.73 700.42-1.8 701.35-1.5 702.27-1.2 703.62-1.2L703.62-1.2 703.62-0.05Q701.57-0.05 699.87 0 698.17 0.05 695.97 0.45L695.97 0.45 695.97-4.15Q695.47-3.35 694.92-2.75L694.92-2.75Q693.62-1.3 691.77-0.38 689.92 0.55 687.47 0.55Z" opacity="1" transform="matrix(1,0,0,1,0,0)" fill="#cb1106" class="slogan-text-1" data-fill-palette-color="secondary" id="text-1"></path></svg></g></svg></g></svg></g></svg></g></svg></g></svg></g></svg></g></svg></g><defs></defs></svg><rect width="395.52" height="247.2" fill="none" stroke="none" visibility="hidden"></rect></g></svg></g></svg>